<?xml version="1.0" standalone="no"?><!DOCTYPE svg PUBLIC "-//W3C//DTD SVG 1.1//EN" "http://www.w3.org/Graphics/SVG/1.1/DTD/svg11.dtd"><svg class="icon" width="32px" height="32.00px" viewBox="0 0 1024 1024" version="1.1" xmlns="http://www.w3.org/2000/svg"><path d="M516.096 865.28C310.784 865.28 143.36 697.856 143.36 492.544s167.424-372.736 372.736-372.736 372.736 167.424 372.736 372.736S721.92 865.28 516.096 865.28z m0-692.736c-176.128 0-319.488 143.36-319.488 319.488s143.36 319.488 319.488 319.488 319.488-143.36 319.488-319.488-142.848-319.488-319.488-319.488z" fill="#ffffff" /><path d="M520.704 687.616c-74.24 0-143.36-33.792-188.928-92.16-9.216-11.776-7.168-28.16 4.608-37.376 11.776-9.216 28.16-7.168 37.376 4.608 35.84 45.568 89.088 71.68 146.944 71.68 58.368 0 112.128-26.624 147.968-72.704 9.216-11.776 25.6-13.824 37.376-5.12s13.824 25.6 5.12 37.376c-46.08 59.904-115.2 93.696-190.464 93.696z" fill="#ffffff" /></svg>