<?xml version="1.0" standalone="no"?><!DOCTYPE svg PUBLIC "-//W3C//DTD SVG 1.1//EN" "http://www.w3.org/Graphics/SVG/1.1/DTD/svg11.dtd"><svg class="icon" width="32px" height="32.00px" viewBox="0 0 1024 1024" version="1.1" xmlns="http://www.w3.org/2000/svg"><path d="M864.768 143.36h-116.736v-6.656c0-74.752-60.928-135.68-135.68-135.68H413.696C338.944 1.024 278.016 61.952 278.016 136.704V143.36H159.232C72.192 143.36 1.536 214.016 1.536 301.056v563.2c0 87.04 70.656 157.696 157.696 157.696h705.536c87.04 0 157.696-70.656 157.696-157.696v-563.2c0.512-87.04-70.656-157.696-157.696-157.696zM89.088 520.192h845.824v338.432c0 47.104-37.888 84.992-84.992 84.992H174.08c-47.104 0-84.992-37.888-84.992-84.992v-338.432zM849.92 222.208c47.104 0 84.992 37.888 84.992 84.992v124.928H89.088V307.2c0-47.104 37.888-84.992 84.992-84.992h675.84zM366.08 143.36c4.096-34.816 33.28-61.44 69.12-61.44h155.648c35.328 0 65.024 26.624 69.12 61.44H366.08z" fill="#ffffff" /><path d="M512 689.664c100.864 0 179.712-44.544 179.712-101.888 0-4.608-0.512-8.704-1.536-12.8l-2.56-9.728h-122.88l36.864 23.552c-9.216 7.68-43.008 20.992-89.6 20.992s-80.384-13.312-89.6-20.992l36.864-23.552H335.872l-2.048 10.24c-1.024 4.608-1.536 8.704-1.536 12.288 0 57.344 78.848 101.888 179.712 101.888z" fill="#ffffff" /></svg>