<?xml version="1.0" standalone="no"?><!DOCTYPE svg PUBLIC "-//W3C//DTD SVG 1.1//EN" "http://www.w3.org/Graphics/SVG/1.1/DTD/svg11.dtd"><svg class="icon" width="32px" height="32.00px" viewBox="0 0 1024 1024" version="1.1" xmlns="http://www.w3.org/2000/svg"><path d="M512 900c214.286 0 388-173.714 388-388S726.286 124 512 124 124 297.714 124 512s173.714 388 388 388z m0 60C264.576 960 64 759.424 64 512S264.576 64 512 64s448 200.576 448 448-200.576 448-448 448z" fill="#ffffff" /><path d="M837 512c0 16.569-13.431 30-30 30-16.569 0-30-13.431-30-30 0-51.031-14.42-99.856-41.185-141.957-8.89-13.983-4.76-32.523 9.222-41.412 13.982-8.89 32.523-4.76 41.412 9.222C819.287 389.506 837 449.482 837 512zM619.377 205.166c15.64 5.472 23.88 22.586 18.408 38.225-5.472 15.638-22.586 23.88-38.225 18.407C571.682 252.043 542.206 247 512 247c-146.355 0-265 118.645-265 265 0 16.569-13.431 30-30 30-16.569 0-30-13.431-30-30 0-179.493 145.507-325 325-325 36.977 0 73.151 6.189 107.377 18.166zM512 582c-38.66 0-70-31.34-70-70s31.34-70 70-70 70 31.34 70 70-31.34 70-70 70z m0-60c5.523 0 10-4.477 10-10s-4.477-10-10-10-10 4.477-10 10 4.477 10 10 10z" fill="#ffffff" /><path d="M465.003 614.363c-10.636 12.704-29.556 14.381-42.26 3.745-12.705-10.635-14.382-29.556-3.746-42.26L672.48 273.065c10.636-12.705 29.556-14.382 42.26-3.746 12.705 10.636 14.382 29.557 3.746 42.261L465.003 614.363z" fill="#ffffff" /></svg>