<?xml version="1.0" standalone="no"?><!DOCTYPE svg PUBLIC "-//W3C//DTD SVG 1.1//EN" "http://www.w3.org/Graphics/SVG/1.1/DTD/svg11.dtd"><svg class="icon" width="64px" height="64.00px" viewBox="0 0 1024 1024" version="1.1" xmlns="http://www.w3.org/2000/svg"><path d="M512 0v82.747475H941.252525v858.50505H512v82.747475H1024V0z" fill="#4a89dc" /><path d="M82.747475 941.252525V82.747475h429.252525V0H0v1024h512v-82.747475z" fill="#4a89dc" /><path d="M298.215693 802.760145c34.367095 4.104275 72.981204 26.367483 105.296162 30.297988 32.488727 4.102206 42.542545-22.124606 42.542545-22.124606s36.559903-8.173382 74.996105-9.114634c38.473438-1.077786 74.892671 8.001681 74.892671 8.001681s7.062497 16.175063 20.246238 23.237559c13.183741 7.19903 41.568194 8.173382 59.760226-10.993002 18.2272-19.304986 66.857891-43.6224 94.164558-58.823111 27.480436-15.235879 22.436978-38.47137 5.184129-45.533866-17.252848-7.060428-31.375774-18.192032-30.297988-39.551225 0.939184-21.183354-15.235879-35.306279-15.235878-35.306278s14.158093-46.611653 0.974351-85.223693c-13.183741-38.436202-56.665471-100.250634-90.093382-146.723685-33.427911-46.611653-5.045527-100.424404-35.480048-169.195831-30.438659-68.874861-109.365269-64.803685-151.907814-35.446949-42.542545 29.358804-29.499475 102.16417-27.447338 136.707103 2.052137 34.367095 0.939184 58.959644-2.991321 67.797075-3.930505 8.973964-31.375774 41.568194-49.602974 68.87486-18.192032 27.445269-31.377842 84.110739-44.700186 107.486901-13.045139 23.23756-3.930505 44.420913-3.930505 44.420913s-9.112566 3.129923-16.313664 18.367871c-7.062497 15.062109-21.185422 22.261139-46.613721 27.168065-25.254529 5.182061-25.254529 21.462626-19.166384 39.689826 6.121244 18.192032 0 28.384453-7.062497 51.622012-7.060428 23.233422 28.281018 30.293851 62.786715 34.365026z m357.245673-105.993309c18.05343 7.896178 44.003038-3.096824 51.899216-10.993002 7.863079-7.86101 13.427846-19.549091 13.427846-19.549091s7.896178 3.930505 7.095596 16.417099c-0.835749 12.662432 5.426166 30.715863 17.252849 36.977778 11.826683 6.226747 29.880113 14.921438 20.523442 23.618198-9.532509 8.69676-62.265406 29.915281-78.022594 46.473051-15.618586 16.452267-36.142028 29.915281-48.630691 25.949608-12.625196-3.930505-23.653366-21.183354-18.225131-46.437883 5.599935-25.149026 10.331022-52.734966 9.53044-68.492154-0.833681-15.757188-3.930505-36.975709 0-40.107701 3.930505-3.096824 10.19242-1.601164 10.192421-1.601163s-3.134061 29.886319 14.956606 37.74526z m-117.155944-425.70059c17.391451 0 31.410941 17.252848 31.410942 38.47137 0 15.062109-7.062497 28.107248-17.39352 34.369164-2.608614-1.077786-5.322731-2.296242-8.314052-3.549867 6.261915-3.094756 10.608226-10.990933 10.608226-20.105568 0-11.930117-7.337632-21.73983-16.55777-21.73983-8.973964 0-16.454335 9.807644-16.454335 21.73983 0 4.350448 1.079855 8.69676 2.852719 12.105956a733.709446 733.709446 0 0 0-14.261527-5.564768 46.888857 46.888857 0 0 1-3.270594-17.252848c0.002069-21.218521 13.984323-38.473438 31.379911-38.473439z m-43.065923 66.301415c8.558158 1.495661 32.070853 11.688081 40.769681 14.818004 8.69676 2.991321 18.330634 8.556089 17.39145 14.122925-1.077786 5.738537-5.564768 5.738537-17.39145 12.939636-11.688081 7.062497-37.219814 22.819685-45.395265 23.897471-8.140283 1.077786-12.765867-3.514699-21.464695-9.114634-8.69676-5.705438-25.008356-19.027782-20.906149-26.08821 0 0 12.765867-9.774545 18.332703-14.782837 5.566836-5.184129 19.966966-17.393519 28.663725-15.792355z m-37.499087-60.178101c13.705051 0 24.871822 16.313665 24.871822 36.419232 0 3.653301-0.417875 7.060428-1.077786 10.469624-3.409196 1.077786-6.816323 2.852719-10.088985 5.705439-1.599095 1.357059-3.096824 2.573446-4.451815 3.930505 2.155572-4.069107 2.991321-9.913147 2.01697-16.036461-1.878368-10.852331-9.218069-18.887111-16.419167-17.809325-7.236267 1.218457-11.549479 11.166772-9.809714 22.159773 1.913535 11.131604 9.112566 19.164315 16.452267 17.947928 0.417875-0.138602 0.800582-0.277204 1.218457-0.417875-3.51263 3.409196-6.783224 6.400517-10.192421 8.835362-9.913147-4.627653-17.252848-18.471305-17.252848-34.78497 0.002069-20.24417 10.993002-36.419232 24.73322-36.419232z m-76.353164 263.184549c14.122925-22.261139 23.235491-70.926998 37.358417-87.102061 14.263596-16.139895 25.254529-50.542158 20.246238-65.742868 0 0 30.43659 36.419232 51.622012 30.43659 21.218521-6.123313 68.910028-41.568194 75.970457-35.480049 7.062497 6.121244 67.797075 139.696356 73.918319 182.238901 6.123313 42.507378-4.069107 74.998174-4.069107 74.998174s-23.235491-6.123313-26.228881 7.999612c-2.991321 14.261527-2.991321 65.918707-2.991321 65.918707s-31.410941 43.481729-80.041633 50.68076c-48.630691 7.062497-72.981204 1.913535-72.981204 1.913535l-27.306666-31.272339s21.22059-3.129923 18.2272-24.453948c-2.991321-21.183354-64.840921-50.544226-75.972525-76.911709-11.127467-26.367483-2.048-70.926998 12.248694-93.223305z m-120.252767 159.524719c2.434844-10.434457 33.94922-10.434457 46.055176-17.774157 12.105956-7.339701 14.538731-28.41962 24.315345-33.984388 9.633875-5.705438 27.445269 14.5408 34.78497 25.947539 7.201099 11.131604 34.787038 59.797463 46.057244 71.90135 11.408808 12.20939 21.880501 28.384453 18.609907 42.925252-3.094756 14.538731-20.24417 25.149026-20.244169 25.149027-15.339313 4.731087-58.125964-13.740218-77.569552-21.880502-19.443588-8.173382-68.910028-10.610295-75.275378-17.809325-6.539119-7.339701 3.129923-23.514764 5.70337-38.856145 2.294174-15.513083-4.904857-25.149026-2.436913-35.618651z" fill="#4a89dc" /></svg>