<?xml version="1.0" standalone="no"?><!DOCTYPE svg PUBLIC "-//W3C//DTD SVG 1.1//EN" "http://www.w3.org/Graphics/SVG/1.1/DTD/svg11.dtd"><svg class="icon" width="32px" height="32.00px" viewBox="0 0 1024 1024" version="1.1" xmlns="http://www.w3.org/2000/svg"><path d="M512.204882 215.158737c-163.569772 0-296.636545 132.862055-296.636545 296.636545 0 4.29908 0 9.417033 0.614154 13.716113-38.896441 24.97561-64.486206 69.604158-64.486206 119.145942 0 78.407037 63.872051 142.279088 142.279089 142.279088 25.794482 0 49.541783-6.960416 70.218312-18.834066 45.037985 26.408637 96.012795 40.12475 148.62535 40.12475 163.569772 0 296.636545-132.862055 296.636546-296.636545C808.841427 348.020792 675.774654 215.158737 512.204882 215.158737zM293.361219 714.87565c-38.896441 0-70.218313-31.321871-70.218312-70.218313 0-38.896441 31.321871-70.218313 70.218312-70.218313s70.218313 31.321871 70.218313 70.218313c0 38.896441-31.936026 70.218313-70.218313 70.218313zM512.204882 736.166333c-33.164334 0-65.919232-7.57457-95.193923-21.290683 11.873651-20.676529 18.834066-44.42383 18.834067-70.218313 0-78.407037-63.872051-142.279088-142.279089-142.279088h-5.732107c4.913235-119.145942 103.382647-214.954018 224.371052-214.954019 124.059176 0 224.371052 100.92603 224.371051 224.371052s-100.311875 224.371052-224.371051 224.371051zM512.204882 0C230.103323 0 0.000164 229.489004 0.000164 512.409436S230.103323 1024 512.204882 1024 1024.4096 794.510996 1024.4096 511.590564 794.306441 0 512.204882 0z m0 951.734506c-242.590964 0-440.143942-197.552979-440.143943-440.143942s197.552979-440.143942 440.143943-440.143943 440.143942 197.552979 440.143942 440.143943-197.552979 440.143942-440.143942 440.143942z" fill="#ffffff" /></svg>