<?xml version="1.0" standalone="no"?><!DOCTYPE svg PUBLIC "-//W3C//DTD SVG 1.1//EN" "http://www.w3.org/Graphics/SVG/1.1/DTD/svg11.dtd"><svg class="icon" width="32px" height="32.00px" viewBox="0 0 1024 1024" version="1.1" xmlns="http://www.w3.org/2000/svg"><path d="M383.37 978.853H128.542c-55.214 0-100.154-46.643-100.154-103.999V623.871c0-17.837 14.433-32.271 32.27-32.271 17.838 0 32.272 14.434 32.272 32.27v250.984c0 21.745 15.946 39.457 35.612 39.457h254.827c17.838 0 32.271 14.434 32.271 32.27 0 17.838-14.432 32.272-32.27 32.272zM896.367 978.853H641.54c-17.837 0-32.27-14.434-32.27-32.271 0-17.837 14.433-32.271 32.27-32.271h254.828c19.665 0 35.612-17.712 35.612-39.457V623.871c0-17.837 14.434-32.271 32.271-32.271s32.271 14.434 32.271 32.27v250.984c0 57.356-44.94 103.999-100.154 103.999zM60.66 426.304c-17.838 0-32.271-14.433-32.271-32.27V143.05c0-57.357 44.94-103.999 100.154-103.999H383.37c17.838 0 32.271 14.434 32.271 32.271s-14.433 32.271-32.27 32.271H128.54c-19.664 0-35.611 17.712-35.611 39.457v250.983c0 17.838-14.433 32.271-32.27 32.271zM964.25 426.304c-17.837 0-32.27-14.433-32.27-32.27V143.05c0-21.745-15.947-39.457-35.613-39.457H641.54c-17.837 0-32.27-14.433-32.27-32.27s14.433-32.272 32.27-32.272h254.828c55.214 0 100.154 46.643 100.154 103.999v250.983c0 17.838-14.434 32.271-32.27 32.271zM511.068 757.43c-162.616 0-316.598-179.918-316.598-247.233s153.981-247.233 316.598-247.233 316.597 179.918 316.597 247.233S673.685 757.43 511.068 757.43z m0-429.924c-127.698 0-249.22 148.245-252.055 182.974 2.837 34.162 124.357 182.408 252.055 182.408s249.219-148.246 252.055-182.975c-2.836-34.162-124.357-182.407-252.055-182.407z" fill="#ffffff" /><path d="M511.068 624.879c-62.274 0-112.949-51.433-112.949-114.682 0-63.219 50.676-114.65 112.949-114.65s112.948 51.432 112.948 114.65c0.001 63.25-50.675 114.682-112.948 114.682z m0-164.79c-26.661 0-48.407 22.47-48.407 50.108s21.746 50.14 48.407 50.14c26.661 0 48.406-22.502 48.406-50.14s-21.745-50.108-48.406-50.108z" fill="#ffffff" /></svg>