<?xml version="1.0" standalone="no"?><!DOCTYPE svg PUBLIC "-//W3C//DTD SVG 1.1//EN" "http://www.w3.org/Graphics/SVG/1.1/DTD/svg11.dtd"><svg class="icon" width="32px" height="32.00px" viewBox="0 0 1024 1024" version="1.1" xmlns="http://www.w3.org/2000/svg"><path d="M697.446 869.376H325.94c-80.896 0-143.77-62.874-143.77-143.77v-371.61c0-80.895 62.874-143.769 143.77-143.769h374.477c77.926 0 140.8 62.874 140.8 143.77v374.477c0 77.926-62.874 140.902-143.77 140.902zM325.94 258.15c-53.965 0-98.816 41.984-98.816 95.847v374.477c0 53.964 44.954 95.846 95.847 95.846h374.476c53.965 0 95.847-44.954 95.847-95.846V353.997c0-53.965-44.954-95.847-95.847-95.847H325.94z m0 0" fill="#ffffff" /><path d="M415.846 449.946h74.855c11.98 0 23.961 9.01 23.961 23.961 0 11.981-9.01 23.962-23.961 23.962h-74.855c-11.98 0-23.961-9.011-23.961-23.962 0-15.053 9.011-23.961 23.961-23.961z m0 149.708h194.765c11.981 0 23.962 9.012 23.962 23.962 0 11.98-9.011 23.962-23.962 23.962H415.846c-11.98 0-23.961-9.012-23.961-23.962s9.011-23.962 23.961-23.962z m0 0M466.74 156.262h89.906c41.984 0 74.855 32.973 74.855 74.855 0 41.984-32.973 74.854-74.855 74.854H466.74c-41.984 0-74.854-32.973-74.854-71.885 0-41.881 32.973-77.824 74.854-77.824z m0 0" fill="#ffffff" /><path d="M556.646 306.074H466.74c-41.984 0-74.854-32.973-74.854-71.885s32.973-74.855 74.854-74.855h89.907c41.984 0 74.855 32.973 74.855 74.855 0 41.984-32.87 71.885-74.855 71.885zM466.74 204.288c-18.022 0-30.003 11.98-30.003 30.003s11.98 30.003 30.003 30.003h89.907c18.023 0 30.004-11.98 30.004-30.003s-11.981-30.003-30.004-30.003H466.74z m0 0" fill="#ffffff" /></svg>