<?xml version="1.0" standalone="no"?><!DOCTYPE svg PUBLIC "-//W3C//DTD SVG 1.1//EN" "http://www.w3.org/Graphics/SVG/1.1/DTD/svg11.dtd"><svg class="icon" width="32px" height="32.00px" viewBox="0 0 1024 1024" version="1.1" xmlns="http://www.w3.org/2000/svg"><path d="M516.704813 0c8.643593 3.967364 17.57302 7.431661 25.89648 11.982124q209.870103 114.596211 419.603006 229.398221c14.245922 7.786094 21.01445 19.436652 21.003017 35.557639q-0.1029 235.37785 0 470.767133c0 16.212454-6.859995 27.737245-21.105917 35.443306Q747.5322 900.477198 533.1345 1018.023207c-14.486022 8.003327-27.805845 7.934727-42.3033 0Q276.479234 900.397165 61.841434 783.23989C47.606945 775.465229 40.746951 763.894705 40.746951 747.727984q0.091467-235.61795 0-471.235899c0-15.812288 6.734228-27.268479 20.579983-34.848773q215.392399-117.763242 430.773365-235.526483c4.74483-2.595365 10.095625-4.081697 15.160588-6.082529z m395.101392 512.761734q0-106.51285 0.080033-213.025701c0-3.429997-1.028999-5.236463-4.081696-6.859995q-196.024347-107.13025-391.934362-214.466299a7.020061 7.020061 0 0 0-7.70606 0Q312.459905 185.608589 116.629925 292.601639c-3.041264 1.657832-4.57333 3.281364-4.57333 7.111527q0.182933 212.545501 0 425.102436c0 3.429997 1.051866 5.225029 4.081697 6.859995q196.092947 107.13025 391.991528 214.477732a7.031495 7.031495 0 0 0 7.717494 0q195.692781-107.221716 391.522761-214.226199c3.327097-1.817899 4.57333-3.761564 4.57333-7.580294q-0.228666-105.746818-0.1372-211.585102z" fill="#ffffff" /><path d="M478.117343 698.530389c0-39.902302-0.057167-79.793171 0.080033-119.695473a8.42636 8.42636 0 0 0-4.253196-8.003327q-124.474603-84.606601-248.812006-169.304669c-14.863322-10.107059-20.80865-25.564913-16.006655-41.159967 7.157261-23.243949 34.08274-32.596408 54.594124-18.784952 24.867481 16.74982 49.597761 33.716874 74.385209 50.59246q85.452667 58.172755 170.8596 116.425543c3.178464 2.172332 5.270763 2.286665 8.540694 0q117.763242-83.943468 235.675116-167.62397c21.208817-15.057688 49.163295-5.716662 56.09189 18.647752 4.26463 14.863322-1.314832 29.898143-14.863322 39.54787q-43.926832 31.293009-87.910832 62.505984-75.814374 53.919558-151.720215 107.759083c-4.104563 2.892631-5.407962 5.865295-5.396529 10.770192q0.2401 117.763242 0.1029 235.617949c0 17.561586-9.901259 31.533109-25.439147 36.152172a35.591939 35.591939 0 0 1-45.881931-34.162773c-0.1372-39.799402-0.045733-79.541638-0.045733-119.283874z" fill="#ffffff" /></svg>