<?xml version="1.0" standalone="no"?><!DOCTYPE svg PUBLIC "-//W3C//DTD SVG 1.1//EN" "http://www.w3.org/Graphics/SVG/1.1/DTD/svg11.dtd"><svg class="icon" width="32px" height="32.00px" viewBox="0 0 1024 1024" version="1.1" xmlns="http://www.w3.org/2000/svg"><path d="M511.44 334.34c-99.63 0-180.68 80.14-180.68 178.65s81.05 178.67 180.68 178.67a187.31 187.31 0 0 0 32.32-3.14 33.59 33.59 0 0 0-5.88-66.71 34.62 34.62 0 0 0-6.23 0.57 115.48 115.48 0 0 1-20.13 2.1c-62.17 0-112.75-50-112.75-111.49s50.51-111.47 112.58-111.47S624 451.53 624 513a104.17 104.17 0 0 1-2.12 19.86 33.67 33.67 0 0 0 27.4 39.09 34.73 34.73 0 0 0 6.18 0.56 33.73 33.73 0 0 0 33.38-27.56A170.82 170.82 0 0 0 692 513c0.05-47.65-18.74-92.49-52.89-126.28a180.45 180.45 0 0 0-127.67-52.38z m435.17 96.56a30 30 0 0 0-22.94-23.5c-42.6-9.67-78-35.51-99.8-72.73A150.84 150.84 0 0 1 810 213a29.4 29.4 0 0 0-9.11-31.35 443 443 0 0 0-144-82.22 30.41 30.41 0 0 0-32 7.87 154.23 154.23 0 0 1-113.35 48.93 154.37 154.37 0 0 1-113.45-49 31 31 0 0 0-32.1-7.85 442.87 442.87 0 0 0-144 82.32 29.69 29.69 0 0 0-9.08 31.19A150.56 150.56 0 0 1 199 334.59c-21.66 37.2-57.08 63-99.8 72.75a30.17 30.17 0 0 0-22.93 23.55 425 425 0 0 0 0 164.2 30 30 0 0 0 22.93 23.5c42.6 9.67 78.05 35.5 99.81 72.73a150.59 150.59 0 0 1 13.81 121.77 29.93 29.93 0 0 0 9.18 31.27 443.34 443.34 0 0 0 144 82.24 30.46 30.46 0 0 0 32-7.81 155.79 155.79 0 0 1 226.84 0 30.31 30.31 0 0 0 22.14 9.54 32 32 0 0 0 10-1.62 443.89 443.89 0 0 0 144-82.25 29.87 29.87 0 0 0 9.02-31.31c-12.8-41.35-7.87-84.58 13.9-121.75s57.12-63.06 99.81-72.73a30.28 30.28 0 0 0 22.93-23.49 425.69 425.69 0 0 0 0-164.28zM745.29 805.16a377.86 377.86 0 0 1-91.55 52.27 216.28 216.28 0 0 0-284.39 0 377.62 377.62 0 0 1-91.55-52.28 208.6 208.6 0 0 0-24.39-148.45c-26.18-44.94-67.92-78.54-118-95.14a358.42 358.42 0 0 1 0-104.65 213.59 213.59 0 0 0 118-95.16 209.65 209.65 0 0 0 24.37-148.45 378.62 378.62 0 0 1 91.56-52.3 215.41 215.41 0 0 0 142.2 53.4 215.07 215.07 0 0 0 142.2-53.31 378.42 378.42 0 0 1 91.55 52.28 209.49 209.49 0 0 0 24.27 148.45c26.18 44.94 67.92 78.54 118 95.15a365.24 365.24 0 0 1 3.84 52.41 341.67 341.67 0 0 1-3.75 52.16c-50.08 16.6-91.81 50.2-118 95.14a210.09 210.09 0 0 0-24.36 148.48z" fill="#ffffff" /></svg>