<?xml version="1.0" standalone="no"?><!DOCTYPE svg PUBLIC "-//W3C//DTD SVG 1.1//EN" "http://www.w3.org/Graphics/SVG/1.1/DTD/svg11.dtd"><svg class="icon" width="32px" height="32.00px" viewBox="0 0 1024 1024" version="1.1" xmlns="http://www.w3.org/2000/svg"><path d="M785.745 239.007c-150.825-150.825-395.915-150.825-546.738 0s-150.825 395.915 0 546.738c125.938 125.185 315.977 146.299 463.031 63.346 0 0 21.869-22.624-5.279-48.265-9.050-8.294-22.624-10.559-47.51 4.525-119.906 55.805-266.96 35.443-366.505-64.1-126.691-126.691-126.691-331.814 0-457.753s331.814-126.691 458.508 0c95.021 94.266 118.397 233.023 71.642 349.914 0 0-17.344 28.657 2.26 49.019 12.066 12.066 31.674 12.066 44.493 0 6.032-6.032 9.050-13.573 9.050-21.115 58.066-141.020 30.918-308.436-82.955-422.309z" fill="#ffffff" /><path d="M423.766 346.847l-70.889 70.889-32.428-32.428c-9.804-9.804-25.639-9.804-32.428 0-9.804 9.804-9.804 25.639 0 32.428l51.281 51.281c3.018 3.018 9.804 6.788 19.607 6.788s9.804-3.018 19.607-6.788l87.477-87.477c9.804-9.804 12.066-28.657-0.753-39.214-17.344-13.573-31.674-1.508-41.475 4.525zM720.893 385.309h-223.219c-16.59 0-22.624 9.804-22.624 22.624 0 16.59 9.804 22.624 22.624 22.624h222.466c16.59 0 22.624-9.804 22.624-22.624 0.753-12.819-9.050-22.624-21.869-22.624z" fill="#ffffff" /><path d="M365.701 529.344c-42.23 0-73.904 32.428-73.904 73.904 0 42.23 32.428 73.904 73.904 73.904 42.23 0 73.904-32.428 73.904-73.904 0-44.493-35.443-73.904-73.904-73.904zM365.701 629.643c-16.59 0-25.639-9.804-25.639-25.639s9.804-25.639 25.639-25.639c16.59 0 25.639 9.804 25.639 25.639 0 15.838-12.819 25.639-25.639 25.639z" fill="#ffffff" /><path d="M720.893 579.871h-223.219c-16.59 0-22.624 9.804-22.624 22.624s9.804 22.624 22.624 22.624h222.466c16.59 0 22.624-9.804 22.624-22.624 0.753-13.573-9.050-22.624-21.869-22.624z" fill="#ffffff" /></svg>