<?xml version="1.0" standalone="no"?><!DOCTYPE svg PUBLIC "-//W3C//DTD SVG 1.1//EN" "http://www.w3.org/Graphics/SVG/1.1/DTD/svg11.dtd"><svg class="icon" width="16px" height="16.00px" viewBox="0 0 1024 1024" version="1.1" xmlns="http://www.w3.org/2000/svg"><path d="M465.609419 667.159457c-10.221653 0-20.050166-4.062452-27.257743-11.401075l-117.024827-117.942155c-14.93934-15.070386-14.808293-39.314052 0.262094-54.122344 15.070386-14.808293 39.314052-14.808293 54.122344 0.262093l90.160226 90.684413 225.662656-224.090095c15.070386-14.93934 39.314052-14.808293 54.122345 0.262094 14.93934 14.93934 14.808293 39.314052-0.262094 54.122345l-252.920399 251.085743c-7.076529 7.207576-16.773995 11.138981-26.864602 11.138981z" fill="#ffffff" /><path d="M512 1004.605068c-37.74149 0-84.001024-14.153059-133.929869-41.017661-46.390581-25.029946-93.436396-59.364218-136.41976-99.333504C140.482211 769.507039 82.428462 662.965959 82.428462 571.888405V192.638853c0-20.574354 16.249808-37.479396 36.693115-38.265677 60.281546-2.48989 121.349373-16.118761 198.011773-44.031738 0.393141-0.131047 0.655234-0.262094 1.048375-0.39314 55.301766-18.477604 110.341438-45.6043 173.374968-85.442539 12.44945-7.86281 28.437164-7.86281 40.886614 0 63.164576 39.838239 118.335296 66.964935 173.374968 85.442539 0.393141 0.131047 0.655234 0.262094 1.048375 0.39314 76.662401 27.912977 137.861275 41.410801 198.011773 44.031738 20.574354 0.917328 36.693115 17.82237 36.693115 38.265677v379.118506c0 91.2086-58.05375 197.618633-159.352956 292.234451-42.983363 40.23138-90.160225 74.565651-136.419759 99.333504-49.666752 26.995649-96.057333 41.279754-133.798823 41.279754zM158.959816 228.283594v343.473765c0 68.930637 50.453033 157.387254 134.978244 236.27745 75.482979 70.634246 165.250064 119.907858 218.06194 119.907858s142.578961-49.273611 218.06194-119.907858c84.525211-79.021244 134.978244-167.215767 134.978244-236.27745V228.283594c-56.481188-5.897108-114.665984-20.574354-183.858715-45.6043-54.908626-18.346557-109.162017-44.162785-169.181469-80.46276-60.019452 36.299974-114.40389 62.116202-169.181469 80.46276-69.061684 25.029946-127.377528 39.576145-183.858715 45.6043z" fill="#ffffff" /></svg>