<?xml version="1.0" standalone="no"?><!DOCTYPE svg PUBLIC "-//W3C//DTD SVG 1.1//EN" "http://www.w3.org/Graphics/SVG/1.1/DTD/svg11.dtd"><svg class="icon" width="64px" height="64.00px" viewBox="0 0 1024 1024" version="1.1" xmlns="http://www.w3.org/2000/svg"><path d="M906.505057 522.863934c-181.249061 79.684907-280.091856 34.956221-361.873689-19.513969l93.202253-317.647301c81.917729 54.198398 172.826953 97.313535 361.815202 20.554691l-93.143766 316.606579z m-411.054258-54.47707a311.678201 311.678201 0 0 0-177.980678-63.738637 493.808006 493.808006 0 0 0-184.39015 44.023404l93.277942-317.301541c189.330569-76.968709 280.375689-33.363314 362.291698 21.180845l-93.200533 315.971825 0.001721-0.135896z m-15.743287 57.53903l-94.461441 318.964976C303.118477 790.699353 213.88989 745.896697 24.414824 822.944535l92.364515-315.550375 1.114691-0.42145c188.640768-76.345996 280.031649-35.666664 361.813482 18.953184z m49.460962 30.791612c81.991698 54.189797 165.916903 93.967743 358.749803 29.176342l-90.004398 307.551437c-189.268642 76.905061-280.097017 33.365034-362.019907-21.172243l93.274502-315.555536z" fill="#4a89dc" /></svg>